<?xml version="1.0" standalone="no"?>
<!DOCTYPE svg PUBLIC "-//W3C//DTD SVG 20010904//EN"
 "http://www.w3.org/TR/2001/REC-SVG-20010904/DTD/svg10.dtd">
<svg version="1.0" xmlns="http://www.w3.org/2000/svg"
 width="512.000000pt" height="512.000000pt" viewBox="0 0 512.000000 512.000000"
 preserveAspectRatio="xMidYMid meet">

<g transform="translate(0.000000,512.000000) scale(0.100000,-0.100000)"
fill="#000000" stroke="none">
<path d="M2515 5109 c-25 -13 16 45 -460 -649 -225 -327 -426 -627 -447 -667
-53 -97 -95 -217 -113 -320 -103 -590 281 -1147 868 -1258 102 -19 292 -19
394 0 511 97 883 540 883 1050 l0 113 45 27 c71 41 151 129 190 209 35 70 65
182 65 241 0 51 -28 164 -54 221 -25 54 -394 602 -421 624 -24 20 -83 24 -109
6 -14 -9 -71 -83 -128 -166 -56 -82 -105 -150 -108 -150 -4 0 -111 152 -239
338 -127 185 -237 344 -244 353 -28 36 -81 48 -122 28z m266 -586 l216 -317
-38 -62 c-103 -170 -114 -359 -28 -527 86 -171 237 -272 437 -292 l72 -7 0
-73 c0 -268 -159 -548 -399 -706 -232 -152 -542 -182 -811 -78 -212 81 -408
279 -491 493 -97 252 -75 549 58 769 50 82 756 1116 763 1116 3 0 102 -142
221 -316z m746 -258 c163 -237 182 -269 199 -336 26 -102 -1 -209 -73 -289
-85 -94 -192 -133 -307 -110 -78 15 -122 38 -176 92 -66 66 -94 136 -95 234 0
71 4 88 31 140 45 86 296 446 304 437 4 -4 57 -80 117 -168z"/>
<path d="M2030 3696 c-33 -19 -85 -107 -117 -198 -20 -56 -27 -98 -31 -183 -5
-137 13 -227 67 -339 45 -92 146 -211 199 -233 66 -28 132 18 132 92 0 28 -10
46 -51 91 -104 115 -149 219 -149 348 0 90 20 167 66 255 28 53 35 76 29 99
-13 62 -91 98 -145 68z"/>
<path d="M2497 2770 c-34 -27 -44 -78 -23 -118 20 -38 44 -52 88 -52 42 0 72
20 88 59 37 91 -75 172 -153 111z"/>
<path d="M334 2650 c-12 -4 -31 -21 -43 -36 -21 -26 -21 -33 -21 -418 0 -372
1 -393 20 -423 11 -18 21 -34 22 -35 2 -1 82 -4 178 -7 l174 -6 14 -40 c28
-80 86 -221 114 -279 l30 -59 -111 -111 c-118 -119 -137 -149 -120 -193 13
-37 675 -701 716 -719 49 -21 75 -6 199 117 l111 111 59 -30 c58 -28 199 -86
279 -114 l40 -14 6 -174 c3 -96 6 -176 7 -178 1 -1 17 -11 35 -22 31 -19 51
-20 517 -20 466 0 486 1 518 20 17 11 33 21 34 22 1 2 4 82 7 178 l6 174 40
14 c80 28 221 86 279 114 l59 30 111 -111 c113 -112 146 -134 187 -124 32 7
707 678 725 720 21 49 6 75 -117 199 l-111 111 30 59 c28 58 86 199 114 279
l14 40 170 5 c118 3 176 9 186 18 36 30 39 60 36 461 l-3 393 -33 29 -32 29
-551 0 c-604 0 -594 1 -619 -60 -10 -24 -10 -46 1 -113 8 -46 13 -144 13 -222
-1 -116 -6 -157 -27 -238 -93 -352 -341 -623 -685 -747 -35 -13 -72 -34 -82
-48 -38 -48 -20 -120 37 -147 31 -15 38 -15 88 0 127 36 283 122 412 227 303
245 479 639 460 1031 l-6 117 414 0 415 0 0 -264 0 -265 -149 -3 c-197 -4
-191 0 -253 -184 -25 -76 -73 -193 -106 -259 -58 -115 -66 -137 -63 -179 0
-10 49 -68 108 -128 l107 -109 -257 -256 -256 -257 -109 107 c-60 59 -118 108
-128 108 -42 3 -64 -5 -179 -63 -66 -33 -183 -81 -259 -106 -184 -62 -180 -56
-184 -253 l-3 -149 -359 0 -359 0 -3 149 c-4 197 0 191 -184 253 -76 25 -193
73 -259 106 -115 58 -137 66 -179 63 -10 0 -68 -49 -128 -108 l-109 -107 -256
257 -257 256 107 109 c59 60 108 118 108 128 3 42 -5 64 -63 179 -33 66 -81
183 -106 259 -62 184 -56 180 -253 184 l-149 3 0 265 0 264 414 0 415 0 -6
-122 c-19 -436 191 -849 559 -1101 94 -64 248 -137 290 -137 77 1 125 93 79
152 -11 13 -71 50 -133 81 -298 150 -503 415 -576 745 -21 95 -22 294 -3 409
11 67 11 89 1 113 -25 61 -16 60 -612 59 -299 0 -553 -4 -564 -9z"/>
<path d="M2524 1210 c-12 -4 -31 -21 -44 -37 -60 -77 39 -185 128 -139 37 19
52 44 52 86 0 42 -15 67 -50 85 -32 17 -54 18 -86 5z"/>
</g>
</svg>
